<svg xmlns="http://www.w3.org/2000/svg" xmlns:xlink="http://www.w3.org/1999/xlink" width="1920" zoomAndPan="magnify" viewBox="0 0 1440 449.999984" height="600" preserveAspectRatio="xMidYMid meet" version="1.0"><defs><g/><clipPath id="7a5129fa37"><rect x="0" width="1434" y="0" height="419"/></clipPath><clipPath id="408f884350"><path d="M 0.761719 18 L 1 18 L 1 19 L 0.761719 19 Z M 0.761719 18 " clip-rule="nonzero"/></clipPath><clipPath id="9be12289cb"><rect x="0" width="8" y="0" height="29"/></clipPath></defs><g transform="matrix(1, 0, 0, 1, 0, 15)"><g clip-path="url(#7a5129fa37)"><g fill="#ffffff" fill-opacity="1"><g transform="translate(0.00002608, 315.955225)"><g><path d="M 55.671875 -185.28125 C 55.671875 -162.800781 54.640625 -146.300781 52.578125 -135.78125 C 56.492188 -144.445312 62.367188 -151.304688 70.203125 -156.359375 C 78.046875 -161.410156 86.710938 -163.9375 96.203125 -163.9375 C 115.785156 -163.9375 130.007812 -156.097656 138.875 -140.421875 C 147.75 -124.753906 152.1875 -104.960938 152.1875 -81.046875 C 152.1875 -54.648438 146.515625 -33.40625 135.171875 -17.3125 C 123.828125 -1.226562 106.398438 6.8125 82.890625 6.8125 C 72.785156 6.8125 62.113281 5.519531 50.875 2.9375 C 39.644531 0.363281 29.90625 -3.191406 21.65625 -7.734375 L 21.65625 -216.515625 L 55.671875 -220.234375 Z M 55.671875 -21.03125 C 64.742188 -14.84375 74.332031 -11.75 84.4375 -11.75 C 97.019531 -11.75 105.269531 -18.140625 109.1875 -30.921875 C 113.101562 -43.710938 115.0625 -59.90625 115.0625 -79.5 C 115.0625 -97.019531 113.15625 -111.503906 109.34375 -122.953125 C 105.53125 -134.398438 97.742188 -140.125 85.984375 -140.125 C 74.023438 -140.125 65.984375 -134.503906 61.859375 -123.265625 C 57.734375 -112.023438 55.671875 -97.742188 55.671875 -80.421875 Z M 55.671875 -21.03125 "/></g></g></g><g fill="#ffffff" fill-opacity="1"><g transform="translate(162.079022, 315.955225)"><g><path d="M 120.015625 -43.609375 C 124.753906 -41.335938 127.125 -36.90625 127.125 -30.3125 C 127.125 -22.882812 124.648438 -16.335938 119.703125 -10.671875 C 114.753906 -5.003906 108.359375 -0.675781 100.515625 2.3125 C 92.679688 5.3125 84.742188 6.8125 76.703125 6.8125 C 54.023438 6.8125 37.21875 -0.554688 26.28125 -15.296875 C 15.351562 -30.046875 9.890625 -49.898438 9.890625 -74.859375 C 9.890625 -101.453125 15.816406 -122.945312 27.671875 -139.34375 C 39.535156 -155.738281 57.53125 -163.9375 81.65625 -163.9375 C 96.914062 -163.9375 109.1875 -159.96875 118.46875 -152.03125 C 127.75 -144.09375 132.390625 -132.90625 132.390625 -118.46875 C 132.390625 -100.53125 126.148438 -87.953125 113.671875 -80.734375 C 101.191406 -73.515625 84.234375 -69.90625 62.796875 -69.90625 C 56.816406 -69.90625 51.144531 -70.109375 45.78125 -70.515625 C 46.394531 -54.234375 49.125 -41.242188 53.96875 -31.546875 C 58.820312 -21.859375 67.429688 -17.015625 79.796875 -17.015625 C 88.867188 -17.015625 96.859375 -19.332031 103.765625 -23.96875 C 110.679688 -28.613281 116.097656 -35.160156 120.015625 -43.609375 Z M 76.703125 -146.3125 C 65.566406 -146.3125 57.726562 -140.484375 53.1875 -128.828125 C 48.65625 -117.179688 46.1875 -102.898438 45.78125 -85.984375 C 51.96875 -85.578125 56.503906 -85.375 59.390625 -85.375 C 85.367188 -85.375 98.359375 -95.785156 98.359375 -116.609375 C 98.359375 -125.066406 96.550781 -132.128906 92.9375 -137.796875 C 89.332031 -143.472656 83.921875 -146.3125 76.703125 -146.3125 Z M 76.703125 -146.3125 "/></g></g></g><g fill="#ffffff" fill-opacity="1"><g transform="translate(303.743508, 315.955225)"><g><path d="M 110.109375 -157.75 L 112.28125 -139.5 L 39.90625 -20.71875 L 114.453125 -23.203125 L 112.28125 0 L 5.265625 0 L 3.09375 -18.875 L 74.546875 -136.71875 L 5.875 -132.6875 L 8.34375 -157.75 Z M 110.109375 -157.75 "/></g></g></g><g fill="#ffffff" fill-opacity="1"><g transform="translate(421.281714, 315.955225)"><g><path d="M 76.40625 43.609375 C 85.882812 43.609375 92.890625 40.359375 97.421875 33.859375 C 101.960938 27.367188 104.75 19.585938 105.78125 10.515625 C 106.8125 1.441406 107.328125 -10 107.328125 -23.8125 L 107.328125 -32.171875 C 103.410156 -26.390625 98.050781 -22.054688 91.25 -19.171875 C 84.445312 -16.285156 77.226562 -14.84375 69.59375 -14.84375 C 49.382812 -14.84375 34.585938 -21.644531 25.203125 -35.25 C 15.828125 -48.863281 11.140625 -67.117188 11.140625 -90.015625 C 11.140625 -113.316406 16.804688 -131.460938 28.140625 -144.453125 C 39.484375 -157.441406 56.289062 -163.9375 78.5625 -163.9375 C 88.875 -163.9375 99.289062 -161.976562 109.8125 -158.0625 L 140.125 -161.46875 L 140.125 -31.234375 C 140.125 -11.234375 138.316406 5.460938 134.703125 18.859375 C 131.097656 32.265625 124.394531 42.78125 114.59375 50.40625 C 104.800781 58.039062 91.140625 61.859375 73.609375 61.859375 C 58.972656 61.859375 46.445312 58.972656 36.03125 53.203125 C 25.625 47.429688 20.421875 38.5625 20.421875 26.59375 C 20.421875 19.582031 22.582031 14.222656 26.90625 10.515625 C 31.238281 6.804688 37.117188 4.953125 44.546875 4.953125 C 49.898438 4.953125 54.019531 6.082031 56.90625 8.34375 C 55.46875 12.675781 54.75 17.316406 54.75 22.265625 C 54.75 36.492188 61.96875 43.609375 76.40625 43.609375 Z M 106.09375 -135.484375 C 96.40625 -142.078125 86.816406 -145.375 77.328125 -145.375 C 65.984375 -145.375 58.195312 -140.320312 53.96875 -130.21875 C 49.75 -120.113281 47.640625 -107.226562 47.640625 -91.5625 C 47.640625 -74.851562 49.75 -61.34375 53.96875 -51.03125 C 58.195312 -40.726562 66.394531 -35.578125 78.5625 -35.578125 C 87.84375 -35.578125 94.75 -38.976562 99.28125 -45.78125 C 103.820312 -52.582031 106.09375 -61.242188 106.09375 -71.765625 Z M 106.09375 -135.484375 "/></g></g></g><g fill="#ffffff" fill-opacity="1"><g transform="translate(581.814173, 315.955225)"><g><path d="M 77.640625 -163.9375 C 100.734375 -163.9375 117.847656 -156.457031 128.984375 -141.5 C 140.117188 -126.550781 145.6875 -106.398438 145.6875 -81.046875 C 145.6875 -54.023438 140.320312 -32.625 129.59375 -16.84375 C 118.875 -1.070312 101.554688 6.8125 77.640625 6.8125 C 54.128906 6.8125 36.957031 -0.710938 26.125 -15.765625 C 15.300781 -30.828125 9.890625 -51.554688 9.890625 -77.953125 C 9.890625 -103.515625 15.457031 -124.234375 26.59375 -140.109375 C 37.726562 -155.992188 54.742188 -163.9375 77.640625 -163.9375 Z M 77.640625 -11.75 C 90.421875 -11.75 98.769531 -18.035156 102.6875 -30.609375 C 106.601562 -43.191406 108.5625 -59.488281 108.5625 -79.5 C 108.5625 -97.84375 106.445312 -113.40625 102.21875 -126.1875 C 98 -138.976562 89.804688 -145.375 77.640625 -145.375 C 57.222656 -145.375 47.015625 -123.414062 47.015625 -79.5 C 47.015625 -59.488281 48.921875 -43.191406 52.734375 -30.609375 C 56.546875 -18.035156 64.847656 -11.75 77.640625 -11.75 Z M 77.640625 -11.75 "/></g></g></g><g fill="#ffffff" fill-opacity="1"><g transform="translate(737.397636, 315.955225)"><g><path d="M 122.171875 -204.140625 L 122.171875 -181.25 L 54.75 -181.25 L 54.75 -111.96875 L 112.90625 -111.96875 L 112.90625 -89.078125 L 54.75 -89.078125 L 54.75 0 L 18.5625 0 L 18.5625 -204.140625 Z M 122.171875 -204.140625 "/></g></g></g><g fill="#ffffff" fill-opacity="1"><g transform="translate(866.380297, 315.955225)"><g><path d="M 75.46875 -140.125 C 66.601562 -140.125 60.878906 -134.191406 58.296875 -122.328125 C 55.722656 -110.472656 54.4375 -96.296875 54.4375 -79.796875 L 54.4375 0 L 20.421875 0 L 20.421875 -157.75 L 48.875 -161.46875 L 50.421875 -133.625 C 53.304688 -142.90625 58.359375 -150.273438 65.578125 -155.734375 C 72.796875 -161.203125 81.144531 -163.9375 90.625 -163.9375 C 100.9375 -163.9375 109.132812 -160.945312 115.21875 -154.96875 C 121.300781 -148.988281 124.34375 -140.84375 124.34375 -130.53125 C 124.34375 -113.820312 116.300781 -105.46875 100.21875 -105.46875 C 94.851562 -105.46875 90.726562 -106.601562 87.84375 -108.875 C 89.289062 -114.238281 90.015625 -118.878906 90.015625 -122.796875 C 90.015625 -134.347656 85.164062 -140.125 75.46875 -140.125 Z M 75.46875 -140.125 "/></g></g></g><g fill="#ffffff" fill-opacity="1"><g transform="translate(988.558186, 315.955225)"><g><path d="M 120.015625 -43.609375 C 124.753906 -41.335938 127.125 -36.90625 127.125 -30.3125 C 127.125 -22.882812 124.648438 -16.335938 119.703125 -10.671875 C 114.753906 -5.003906 108.359375 -0.675781 100.515625 2.3125 C 92.679688 5.3125 84.742188 6.8125 76.703125 6.8125 C 54.023438 6.8125 37.21875 -0.554688 26.28125 -15.296875 C 15.351562 -30.046875 9.890625 -49.898438 9.890625 -74.859375 C 9.890625 -101.453125 15.816406 -122.945312 27.671875 -139.34375 C 39.535156 -155.738281 57.53125 -163.9375 81.65625 -163.9375 C 96.914062 -163.9375 109.1875 -159.96875 118.46875 -152.03125 C 127.75 -144.09375 132.390625 -132.90625 132.390625 -118.46875 C 132.390625 -100.53125 126.148438 -87.953125 113.671875 -80.734375 C 101.191406 -73.515625 84.234375 -69.90625 62.796875 -69.90625 C 56.816406 -69.90625 51.144531 -70.109375 45.78125 -70.515625 C 46.394531 -54.234375 49.125 -41.242188 53.96875 -31.546875 C 58.820312 -21.859375 67.429688 -17.015625 79.796875 -17.015625 C 88.867188 -17.015625 96.859375 -19.332031 103.765625 -23.96875 C 110.679688 -28.613281 116.097656 -35.160156 120.015625 -43.609375 Z M 76.703125 -146.3125 C 65.566406 -146.3125 57.726562 -140.484375 53.1875 -128.828125 C 48.65625 -117.179688 46.1875 -102.898438 45.78125 -85.984375 C 51.96875 -85.578125 56.503906 -85.375 59.390625 -85.375 C 85.367188 -85.375 98.359375 -95.785156 98.359375 -116.609375 C 98.359375 -125.066406 96.550781 -132.128906 92.9375 -137.796875 C 89.332031 -143.472656 83.921875 -146.3125 76.703125 -146.3125 Z M 76.703125 -146.3125 "/></g></g></g><g fill="#ffffff" fill-opacity="1"><g transform="translate(1130.222698, 315.955225)"><g><path d="M 70.515625 -147.546875 C 64.335938 -147.546875 59.390625 -145.945312 55.671875 -142.75 C 51.960938 -139.550781 50.109375 -134.960938 50.109375 -128.984375 C 50.109375 -120.941406 52.835938 -114.394531 58.296875 -109.34375 C 63.765625 -104.289062 72.171875 -98.671875 83.515625 -92.484375 C 92.585938 -87.535156 99.851562 -83.101562 105.3125 -79.1875 C 110.78125 -75.269531 115.472656 -70.269531 119.390625 -64.1875 C 123.304688 -58.101562 125.265625 -50.726562 125.265625 -42.0625 C 125.265625 -26.394531 119.644531 -14.332031 108.40625 -5.875 C 97.175781 2.582031 82.898438 6.8125 65.578125 6.8125 C 50.523438 6.8125 37.894531 4.234375 27.6875 -0.921875 C 17.476562 -6.078125 12.375 -14.632812 12.375 -26.59375 C 12.375 -33.613281 14.535156 -38.976562 18.859375 -42.6875 C 23.191406 -46.394531 29.070312 -48.25 36.5 -48.25 C 41.863281 -48.25 45.988281 -47.113281 48.875 -44.84375 C 47.21875 -39.894531 46.390625 -35.257812 46.390625 -30.9375 C 46.390625 -24.332031 48.453125 -19.125 52.578125 -15.3125 C 56.703125 -11.5 62.269531 -9.59375 69.28125 -9.59375 C 76.914062 -9.59375 82.742188 -11.601562 86.765625 -15.625 C 90.785156 -19.644531 92.796875 -25.570312 92.796875 -33.40625 C 92.796875 -41.445312 90.0625 -47.992188 84.59375 -53.046875 C 79.132812 -58.097656 70.734375 -63.71875 59.390625 -69.90625 C 50.316406 -75.0625 43.046875 -79.597656 37.578125 -83.515625 C 32.117188 -87.429688 27.425781 -92.429688 23.5 -98.515625 C 19.582031 -104.597656 17.625 -111.96875 17.625 -120.625 C 17.625 -134.445312 23.191406 -145.117188 34.328125 -152.640625 C 45.460938 -160.171875 58.972656 -163.9375 74.859375 -163.9375 C 89.492188 -163.9375 101.503906 -161.304688 110.890625 -156.046875 C 120.273438 -150.785156 124.96875 -142.175781 124.96875 -130.21875 C 124.96875 -123.207031 122.75 -117.84375 118.3125 -114.125 C 113.875 -110.414062 107.945312 -108.5625 100.53125 -108.5625 C 95.164062 -108.5625 91.039062 -109.695312 88.15625 -111.96875 C 89.800781 -116.914062 90.625 -121.554688 90.625 -125.890625 C 90.625 -132.691406 88.921875 -138 85.515625 -141.8125 C 82.117188 -145.632812 77.117188 -147.546875 70.515625 -147.546875 Z M 70.515625 -147.546875 "/></g></g></g><g fill="#ffffff" fill-opacity="1"><g transform="translate(1267.556838, 315.955225)"><g><path d="M 55.671875 -185.28125 C 55.671875 -162.800781 54.640625 -146.300781 52.578125 -135.78125 C 56.910156 -145.0625 62.992188 -152.070312 70.828125 -156.8125 C 78.671875 -161.5625 87.847656 -163.9375 98.359375 -163.9375 C 115.679688 -163.9375 127.742188 -159.140625 134.546875 -149.546875 C 141.359375 -139.960938 144.765625 -125.375 144.765625 -105.78125 L 144.765625 -25.359375 C 144.765625 -15.253906 147.957031 -8.453125 154.34375 -4.953125 C 152.695312 -1.859375 150.015625 0.507812 146.296875 2.15625 C 142.585938 3.8125 138.671875 4.640625 134.546875 4.640625 C 126.503906 4.640625 120.523438 2.375 116.609375 -2.15625 C 112.691406 -6.695312 110.734375 -13.09375 110.734375 -21.34375 L 110.734375 -101.453125 C 110.734375 -114.441406 109.289062 -124.132812 106.40625 -130.53125 C 103.519531 -136.925781 97.125 -140.125 87.21875 -140.125 C 74.644531 -140.125 66.242188 -134.554688 62.015625 -123.421875 C 57.785156 -112.285156 55.671875 -97.953125 55.671875 -80.421875 L 55.671875 0 L 21.65625 0 L 21.65625 -216.515625 L 55.671875 -220.234375 Z M 55.671875 -185.28125 "/></g></g></g><g fill="#ffffff" fill-opacity="1"><g transform="translate(14.931213, 402.351329)"><g/></g></g><g fill="#ffffff" fill-opacity="1"><g transform="translate(29.8624, 402.351329)"><g/></g></g><g fill="#ffffff" fill-opacity="1"><g transform="translate(44.793587, 402.351329)"><g/></g></g><g fill="#ffffff" fill-opacity="1"><g transform="translate(59.724774, 402.351329)"><g/></g></g><g fill="#ffffff" fill-opacity="1"><g transform="translate(74.655961, 402.351329)"><g/></g></g><g fill="#ffffff" fill-opacity="1"><g transform="translate(89.587149, 402.351329)"><g/></g></g><g fill="#ffffff" fill-opacity="1"><g transform="translate(104.518336, 402.351329)"><g/></g></g><g fill="#ffffff" fill-opacity="1"><g transform="translate(119.449523, 402.351329)"><g/></g></g><g fill="#ffffff" fill-opacity="1"><g transform="translate(134.38071, 402.351329)"><g/></g></g><g fill="#ffffff" fill-opacity="1"><g transform="translate(149.311897, 402.351329)"><g/></g></g><g fill="#ffffff" fill-opacity="1"><g transform="translate(164.243084, 402.351329)"><g/></g></g><g fill="#ffffff" fill-opacity="1"><g transform="translate(179.174271, 402.351329)"><g/></g></g><g fill="#ffffff" fill-opacity="1"><g transform="translate(194.105458, 402.351329)"><g/></g></g><g fill="#ffffff" fill-opacity="1"><g transform="translate(209.036645, 402.351329)"><g/></g></g><g fill="#ffffff" fill-opacity="1"><g transform="translate(223.967832, 402.351329)"><g/></g></g><g fill="#ffffff" fill-opacity="1"><g transform="translate(238.899019, 402.351329)"><g/></g></g><g fill="#ffffff" fill-opacity="1"><g transform="translate(253.830206, 402.351329)"><g/></g></g><g fill="#ffffff" fill-opacity="1"><g transform="translate(268.761393, 402.351329)"><g/></g></g><g fill="#ffffff" fill-opacity="1"><g transform="translate(283.712242, 402.351329)"><g/></g></g></g></g><g transform="matrix(1, 0, 0, 1, 497, 298)"><g clip-path="url(#9be12289cb)"><g clip-path="url(#408f884350)"><g fill="#000000" fill-opacity="1"><g transform="translate(0.839558, 18.820865)"><g/></g></g></g></g></g></svg>